<svg version="1.1" id="Layer_1" xmlns="http://www.w3.org/2000/svg" xmlns:xlink="http://www.w3.org/1999/xlink" x="0px" y="0px"
	 width="100%" viewBox="0 0 600 601" enable-background="new 0 0 600 601" xml:space="preserve">
<path fill="#0866FF" opacity="1.000000" stroke="none" 
	d="
M266.000000,0.999999 
	C289.020905,1.000000 312.041779,1.000000 335.323700,1.401193 
	C336.260956,2.193475 336.899567,2.827299 337.619141,2.938842 
	C346.806915,4.363091 356.136993,5.136220 365.178833,7.186421 
	C395.148499,13.981917 423.623871,24.784277 450.381897,40.039303 
	C472.832520,52.838646 493.366882,68.265633 511.617126,86.430565 
	C522.521912,97.284401 532.319214,109.349731 541.826599,121.487541 
	C559.834351,144.477524 573.225037,170.120773 583.179871,197.540955 
	C591.029968,219.163513 596.813049,241.299438 599.092529,264.268555 
	C599.155457,264.902527 600.339050,265.425354 601.000000,266.000000 
	C601.000000,289.020905 601.000000,312.041779 600.597290,335.330872 
	C599.804260,336.275330 599.172119,336.913971 599.060486,337.633484 
	C597.634583,346.820526 596.854736,356.148468 594.808472,365.191193 
	C588.027588,395.156128 577.236816,423.630371 561.954529,450.360107 
	C548.801575,473.365479 532.655090,494.121857 514.251831,513.068726 
	C506.829956,520.709778 498.228851,527.199524 490.231232,534.288635 
	C476.606445,546.365662 461.282349,556.032349 445.434540,564.729614 
	C422.850098,577.124023 399.038177,586.778809 373.842804,592.468689 
	C361.815033,595.184937 349.528290,596.754272 337.365051,598.384888 
	C337.371216,529.685242 337.371216,461.443787 337.371216,392.756256 
	C364.880432,392.756256 391.647766,392.756256 418.591919,392.756256 
	C424.221680,362.079437 429.777649,331.804840 435.456635,300.859772 
	C402.459045,300.859772 370.079132,300.859772 336.624634,300.859772 
	C337.462891,282.318451 337.313446,264.288361 339.343689,246.507126 
	C341.526550,227.388916 351.402557,212.678665 370.623047,206.554901 
	C378.437103,204.065262 386.809448,202.564621 395.000275,202.187180 
	C409.881195,201.501465 424.816376,201.992630 439.894104,201.992630 
	C439.894104,174.653610 439.894104,147.059082 439.894104,118.834480 
	C430.909882,117.493362 422.089386,116.128159 413.254089,114.866768 
	C385.055908,110.841034 356.881622,110.613838 328.840576,116.065765 
	C302.999451,121.089989 279.667328,131.227478 261.587097,151.117310 
	C244.606903,169.796997 235.637634,192.394928 232.212616,216.953217 
	C229.807724,234.196960 229.252686,251.721603 228.369705,269.146057 
	C227.841278,279.574036 228.272751,290.050659 228.272751,300.999207 
	C207.584976,300.999207 187.339127,300.999207 167.054016,300.999207 
	C167.054016,331.860352 167.054016,362.219666 167.054016,393.152557 
	C187.670776,393.152557 207.885010,393.152557 228.272430,393.152557 
	C228.272430,394.891815 228.272430,396.053589 228.272430,397.215393 
	C228.272476,460.870911 228.274261,524.526428 228.260910,588.181946 
	C228.260620,589.505310 228.085220,590.828674 227.580505,592.087280 
	C226.337753,591.986328 225.461670,592.109131 224.680756,591.891052 
	C199.841797,584.956299 176.062073,575.516174 153.468369,562.943848 
	C129.673584,549.703125 108.368454,533.204590 89.027733,514.251099 
	C79.545105,504.958344 71.015053,494.595703 62.786491,484.140686 
	C43.294979,459.375092 28.483011,431.938477 17.996569,402.213654 
	C10.612751,381.283508 5.084076,359.899628 2.907481,337.733307 
	C2.845215,337.099243 1.661049,336.575287 0.999999,336.000000 
	C1.000000,312.979095 1.000000,289.958221 1.402813,266.669250 
	C2.201437,265.558380 2.805052,264.752289 2.961709,263.867126 
	C5.117939,251.683594 6.479975,239.306046 9.471806,227.334732 
	C16.122742,200.722122 26.497604,175.508698 40.044617,151.606445 
	C52.790874,129.117035 68.354874,108.706726 86.425476,90.354752 
	C96.321716,80.304428 107.268387,71.207039 118.290298,62.364109 
	C138.752686,45.947041 161.561844,33.243454 185.718475,23.251328 
	C210.887650,12.840367 237.033752,5.609241 264.283508,2.906941 
	C264.912537,2.844564 265.430328,1.660733 266.000000,0.999999 
z"/>
<path fill="#FEFFFF" opacity="1.000000" stroke="none" 
	d="
M227.991531,592.151978 
	C228.085220,590.828674 228.260620,589.505310 228.260910,588.181946 
	C228.274261,524.526428 228.272476,460.870911 228.272430,397.215393 
	C228.272430,396.053589 228.272430,394.891815 228.272430,393.152557 
	C207.885010,393.152557 187.670776,393.152557 167.054016,393.152557 
	C167.054016,362.219666 167.054016,331.860352 167.054016,300.999207 
	C187.339127,300.999207 207.584976,300.999207 228.272751,300.999207 
	C228.272751,290.050659 227.841278,279.574036 228.369705,269.146057 
	C229.252686,251.721603 229.807724,234.196960 232.212616,216.953217 
	C235.637634,192.394928 244.606903,169.796997 261.587097,151.117310 
	C279.667328,131.227478 302.999451,121.089989 328.840576,116.065765 
	C356.881622,110.613838 385.055908,110.841034 413.254089,114.866768 
	C422.089386,116.128159 430.909882,117.493362 439.894104,118.834480 
	C439.894104,147.059082 439.894104,174.653610 439.894104,201.992630 
	C424.816376,201.992630 409.881195,201.501465 395.000275,202.187180 
	C386.809448,202.564621 378.437103,204.065262 370.623047,206.554901 
	C351.402557,212.678665 341.526550,227.388916 339.343689,246.507126 
	C337.313446,264.288361 337.462891,282.318451 336.624634,300.859772 
	C370.079132,300.859772 402.459045,300.859772 435.456635,300.859772 
	C429.777649,331.804840 424.221680,362.079437 418.591919,392.756256 
	C391.647766,392.756256 364.880432,392.756256 337.371216,392.756256 
	C337.371216,461.443787 337.371216,529.685242 336.921753,598.492065 
	C333.614105,599.371826 330.728119,599.540161 327.912140,600.076233 
	C326.857574,600.276917 325.965912,601.333557 325.000000,602.000000 
	C309.312439,602.000000 293.624878,602.000000 277.771576,601.622070 
	C277.095825,600.842346 276.619141,600.145386 276.070770,600.083496 
	C269.437195,599.334900 262.731781,599.038147 256.166229,597.915283 
	C246.722351,596.300110 237.378235,594.101562 227.991531,592.151978 
z"/>
<path fill="#000000" opacity="1.000000" stroke="none" 
	d="
M325.468658,602.000000 
	C325.965912,601.333557 326.857574,600.276917 327.912140,600.076233 
	C330.728119,599.540161 333.614105,599.371826 336.915558,598.950195 
	C349.528290,596.754272 361.815033,595.184937 373.842804,592.468689 
	C399.038177,586.778809 422.850098,577.124023 445.434540,564.729614 
	C461.282349,556.032349 476.606445,546.365662 490.231232,534.288635 
	C498.228851,527.199524 506.829956,520.709778 514.251831,513.068726 
	C532.655090,494.121857 548.801575,473.365479 561.954529,450.360107 
	C577.236816,423.630371 588.027588,395.156128 594.808472,365.191193 
	C596.854736,356.148468 597.634583,346.820526 599.060486,337.633484 
	C599.172119,336.913971 599.804260,336.275330 600.597290,335.799561 
	C601.000000,424.595062 601.000000,513.190125 601.000000,602.000000 
	C509.312561,602.000000 417.624939,602.000000 325.468658,602.000000 
z"/>
<path fill="#000000" opacity="1.000000" stroke="none" 
	d="
M227.580505,592.087219 
	C237.378235,594.101562 246.722351,596.300110 256.166229,597.915283 
	C262.731781,599.038147 269.437195,599.334900 276.070770,600.083496 
	C276.619141,600.145386 277.095825,600.842346 277.302917,601.622070 
	C185.074280,602.000000 93.148575,602.000000 1.000000,602.000000 
	C1.000000,513.645874 1.000000,425.291595 0.999999,336.468658 
	C1.661049,336.575287 2.845215,337.099243 2.907481,337.733307 
	C5.084076,359.899628 10.612751,381.283508 17.996569,402.213654 
	C28.483011,431.938477 43.294979,459.375092 62.786491,484.140686 
	C71.015053,494.595703 79.545105,504.958344 89.027733,514.251099 
	C108.368454,533.204590 129.673584,549.703125 153.468369,562.943848 
	C176.062073,575.516174 199.841797,584.956299 224.680756,591.891052 
	C225.461670,592.109131 226.337753,591.986328 227.580505,592.087219 
z"/>
<path fill="#000000" opacity="1.000000" stroke="none" 
	d="
M601.000000,265.531342 
	C600.339050,265.425354 599.155457,264.902527 599.092529,264.268555 
	C596.813049,241.299438 591.029968,219.163513 583.179871,197.540955 
	C573.225037,170.120773 559.834351,144.477524 541.826599,121.487541 
	C532.319214,109.349731 522.521912,97.284401 511.617126,86.430565 
	C493.366882,68.265633 472.832520,52.838646 450.381897,40.039303 
	C423.623871,24.784277 395.148499,13.981917 365.178833,7.186421 
	C356.136993,5.136220 346.806915,4.363091 337.619141,2.938842 
	C336.899567,2.827299 336.260956,2.193475 335.792358,1.401193 
	C424.260376,1.000000 512.520752,1.000000 601.000000,1.000000 
	C601.000000,89.020775 601.000000,177.041733 601.000000,265.531342 
z"/>
<path fill="#000000" opacity="1.000000" stroke="none" 
	d="
M265.531342,0.999999 
	C265.430328,1.660733 264.912537,2.844564 264.283508,2.906941 
	C237.033752,5.609241 210.887650,12.840367 185.718475,23.251328 
	C161.561844,33.243454 138.752686,45.947041 118.290298,62.364109 
	C107.268387,71.207039 96.321716,80.304428 86.425476,90.354752 
	C68.354874,108.706726 52.790874,129.117035 40.044617,151.606445 
	C26.497604,175.508698 16.122742,200.722122 9.471806,227.334732 
	C6.479975,239.306046 5.117939,251.683594 2.961709,263.867126 
	C2.805052,264.752289 2.201437,265.558380 1.402813,266.200623 
	C1.000000,177.739624 1.000000,89.479263 1.000000,1.000000 
	C89.020775,1.000000 177.041733,1.000000 265.531342,0.999999 
z"/>
</svg>